<svg viewBox="0 0 500 500" fill="none" xmlns="http://www.w3.org/2000/svg">
  {/* Background Circle */}
  <circle cx="250" cy="250" r="200" fill="#E8F5E9" opacity="0.5" />
  
  {/* Waste Bin */}
  <rect x="180" y="200" width="140" height="180" rx="10" fill="#2E7D32" />
  <rect x="180" y="200" width="140" height="40" rx="10" fill="#1B5E20" />
  <path
    d="M200 200 L200 180 L220 180 L220 200 M280 200 L280 180 L300 180 L300 200"
    stroke="#1B5E20"
    strokeWidth="4"
    fill="none"
  />
  
  {/* Recycling Symbol */}
  <circle cx="250" cy="290" r="40" fill="white" opacity="0.9" />
  <path
    d="M250 260 L235 285 L250 275 L265 285 Z M235 285 L220 285 L225 300 L235 295 Z M265 285 L280 285 L275 300 L265 295 Z"
    fill="#2E7D32"
  />
  
  {/* Floating Leaves */}
  <ellipse cx="120" cy="150" rx="15" ry="25" fill="#4CAF50" opacity="0.7" transform="rotate(-20 120 150)" />
  <ellipse cx="380" cy="180" rx="15" ry="25" fill="#66BB6A" opacity="0.7" transform="rotate(20 380 180)" />
  <ellipse cx="350" cy="320" rx="15" ry="25" fill="#81C784" opacity="0.7" transform="rotate(-15 350 320)" />
  
  {/* Checkmark Badge */}
  <circle cx="320" cy="220" r="30" fill="#4CAF50" />
  <path
    d="M310 220 L318 228 L332 212"
    stroke="white"
    strokeWidth="4"
    strokeLinecap="round"
    strokeLinejoin="round"
    fill="none"
  />
</svg>
